<svg id="图层_1" data-name="图层 1" xmlns="http://www.w3.org/2000/svg" viewBox="0 0 612.88 549.88"><defs><style>.cls-1{fill:#03a5dd;}</style></defs><title>bilibili</title><path class="cls-1" d="M595.61,179.13c-1.94-81.31-72.6-96.8-72.6-96.8s-55.18-.44-126.95-.81l52.06-50.44s8.39-10.33-5.81-21.94-15-6.45-19.74-3.23c-4.35,2.94-66.76,64.38-77.93,75.38-34.42-.13-70.37-.23-104.46-.24h28S193.37,7.2,188.59,4,183-4.41,168.84,7.2,163,29.14,163,29.14L216.6,81.05h3c-59.39,0-110.59.38-134.07,1.28-75.5,21.3-69.7,96.8-69.7,96.8s1,161.65-.1,243.44c8.13,81.8,71.25,94.86,71.25,94.86s25.17.49,43.56.49c1.93,5.32,3.38,31,31.94,31s31.94-31,31.94-31,209.09-1,226.51-1c1,8.71,5.32,32.43,33.88,31.94S485.26,515,485.26,515s9.68-1,38.72,0c67.75-12.58,71.63-91.95,71.63-91.95S594.64,260.44,595.61,179.13ZM537.31,437.9c0,12.83-10.16,23.23-22.69,23.23H102.48c-12.53,0-22.68-10.4-22.68-23.23v-273c0-12.83,10.15-23.23,22.68-23.23H514.62c12.53,0,22.69,10.4,22.69,23.23Z"/><polygon class="cls-1" points="123.19 242.02 244.18 218.79 253.38 264.29 133.35 287.52 123.19 242.02"/><polygon class="cls-1" points="499.73 242.02 378.73 218.79 369.53 264.29 489.56 287.52 499.73 242.02"/><path class="cls-1" d="M253.38,354.79S280,402.7,309.52,339.3c28.56,61.95,60,16.42,60,16.42l17.91,11.65S354.05,421.09,310,380.44c-37.26,40.65-76.46-13-76.46-13Z"/></svg>